<svg width="32" height="32" viewBox="0 0 32 32" fill="none" xmlns="http://www.w3.org/2000/svg">
<path d="M17.4487 6.98007C18.3721 7.13514 20.3372 7.52273 20.9838 7.69583C21.9209 7.94217 22.8824 7.38818 23.1279 6.4551C23.3746 5.51787 22.8206 4.55608 21.8873 4.3105L21.8863 4.31023C21.0109 4.07596 18.5582 3.60259 17.7504 3.47832L17.7497 3.47821C14.9925 3.04547 12.3122 3.21632 10.1558 4.1422L10.1555 4.14236C8.01139 5.05873 6.36777 6.73667 5.86392 9.15898L7.58681 9.4598L7.5877 9.45995L7.50259 9.95266L7.5017 9.9525L5.78199 9.65863C5.58215 11.0376 5.72084 12.2885 6.2169 13.4047L6.21695 13.4048C6.73772 14.578 7.58987 15.4575 8.54353 16.1196L8.5437 16.1197C10.3069 17.346 12.7157 18.0424 14.7667 18.6257C14.827 18.6384 14.8842 18.656 14.9309 18.6703C14.9406 18.6733 14.9499 18.6761 14.9586 18.6788C14.9592 18.6789 14.9597 18.6791 14.9603 18.6793L14.8885 18.9187C17.176 19.5687 18.9947 20.1125 20.1947 20.95L17.4487 6.98007ZM17.4487 6.98007L17.7167 5.25715L17.2227 5.1803L16.9546 6.90352M17.4487 6.98007L16.9546 6.90352M16.9546 6.90352C14.7307 6.58876 12.8607 6.79762 11.5357 7.36042L11.5339 7.35763C10.2128 7.92287 9.47104 8.811 9.26701 10.008L9.267 10.008C9.11037 10.9282 9.21772 11.5475 9.40924 11.9873L9.41 11.989C9.60801 12.4345 9.96196 12.8484 10.5382 13.2544L10.5391 13.255C11.7806 14.1214 13.6451 14.6753 15.9183 15.3212M16.9546 6.90352L19.343 26.6423C19.3431 26.6423 19.3431 26.6423 19.3432 26.6423C17.9746 27.2288 16.0051 27.4267 13.6752 27.0658L13.6737 27.0655C12.5615 26.8864 10.6915 26.2529 9.14477 25.729C9.09053 25.7106 9.03668 25.6924 8.98328 25.6743L8.98067 25.6734C8.62586 25.5489 8.29636 25.437 7.9921 25.3376L7.99192 25.3376C7.07042 25.0359 6.07595 25.5304 5.77604 26.4465C5.47471 27.3669 5.96795 28.3573 6.87476 28.6694M15.9183 15.3212C15.9177 15.321 15.9172 15.3209 15.9166 15.3207L15.9885 15.0812L15.9201 15.3217C15.9195 15.3215 15.9189 15.3214 15.9183 15.3212ZM15.9183 15.3212C15.927 15.3238 15.9363 15.3267 15.946 15.3296C15.9927 15.344 16.0499 15.3615 16.1102 15.3742M16.1102 15.3742C18.1612 15.9576 20.57 16.6539 22.3332 17.8802L22.3334 17.8803C23.287 18.5424 24.1392 19.4219 24.66 20.5952L24.66 20.5953C25.1863 21.7794 25.3103 23.1153 25.0546 24.5949L25.0546 24.5952C24.6151 27.1534 22.9329 28.916 20.7152 29.8638L20.7148 29.864C18.5585 30.7899 15.8781 30.9607 13.121 30.528L13.1017 30.525H13.09M16.1102 15.3742C16.1073 15.3734 16.1043 15.3725 16.1013 15.3717L16.1697 15.1312M16.1102 15.3742C16.1137 15.375 16.1172 15.3757 16.1207 15.3764L16.1697 15.1312M13.09 30.525C11.6147 30.2815 9.23488 29.4707 7.67676 28.9388M13.09 30.525C13.0966 30.5261 13.1032 30.5271 13.1098 30.5282L13.0822 30.6981L13.0697 30.775M13.09 30.525H13.0822H13.0697V30.775M7.67676 28.9388C7.45587 28.8606 7.24684 28.7919 7.06424 28.7319C6.99729 28.7099 6.93389 28.6891 6.87476 28.6694M7.67676 28.9388C7.67723 28.939 7.6777 28.9392 7.67816 28.9393L7.5947 29.175M7.67676 28.9388C7.67633 28.9387 7.6759 28.9385 7.67547 28.9384L7.5947 29.175M6.87476 28.6694C6.87514 28.6695 6.87552 28.6696 6.87589 28.6698L6.7947 28.9062M6.87476 28.6694C6.87443 28.6693 6.87409 28.6692 6.87376 28.6691L6.7947 28.9062M6.7947 28.9062C6.85585 28.9266 6.92068 28.9479 6.98871 28.9703C7.17101 29.0302 7.37623 29.0976 7.5947 29.175M6.7947 28.9062C5.7572 28.55 5.1947 27.4187 5.53845 26.3687C5.8822 25.3187 7.0197 24.7562 8.0697 25.1C8.37595 25.2 8.7072 25.3125 9.06345 25.4375C9.11166 25.4538 9.16019 25.4702 9.209 25.4868C10.7679 26.0148 12.6226 26.643 13.7135 26.8187L7.5947 29.175M7.5947 29.175C9.15095 29.7062 11.5697 30.5312 13.0697 30.775M7.5947 29.175L13.0697 30.775M13.0697 30.775H13.0822H13.0697ZM16.1697 15.1312C18.2135 15.7125 20.6697 16.4187 22.476 17.675L16.1697 15.1312Z" fill="white" stroke="#041331" stroke-width="0.5"/>
<path d="M23.8277 4.76393C22.6722 5.7788 21.4727 5.85115 20.5528 5.76752L20.5382 5.76619L20.5234 5.76619L20.4894 5.76619C20.0477 5.76613 19.6824 5.76609 19.3604 5.8466C19.006 5.93519 18.7206 6.11447 18.408 6.42706C18.0954 6.73966 17.9161 7.02507 17.8275 7.37944C17.747 7.70148 17.7471 8.06679 17.7471 8.5085L17.7471 8.54249L17.7471 8.55723L17.7485 8.57192C17.8378 9.55491 17.7491 10.8572 16.5224 12.0839C15.2957 13.3106 13.9934 13.3994 13.0104 13.31L12.9957 13.3087L12.981 13.3087L12.947 13.3087C12.5053 13.3086 12.1399 13.3086 11.8179 13.3891C11.4635 13.4777 11.1781 13.6569 10.8655 13.9695C10.5529 14.2821 10.3737 14.5675 10.2851 14.9219C10.2045 15.244 10.2046 15.6093 10.2046 16.051C10.2046 16.0623 10.2046 16.0736 10.2046 16.085V16.0997L10.206 16.1144C10.2896 17.0343 10.2173 18.2338 9.20239 19.3893L7.77237 17.9592C7.95398 17.734 8.06892 17.5098 8.13437 17.248C8.21488 16.926 8.21483 16.5607 8.21478 16.1189C8.21478 16.1077 8.21478 16.0963 8.21478 16.085L8.21478 16.0702L8.21345 16.0555C8.12408 15.0725 8.21283 13.7702 9.43952 12.5435C10.6662 11.3168 11.9685 11.2281 12.9515 11.3175L12.9662 11.3188L12.9809 11.3188L13.0149 11.3188C13.4566 11.3188 13.822 11.3189 14.144 11.2384C14.4984 11.1498 14.7838 10.9705 15.0964 10.6579C15.409 10.3453 15.5882 10.0599 15.6768 9.70554C15.7573 9.3835 15.7573 9.01819 15.7573 8.57648L15.7573 8.54249L15.7573 8.52775L15.7559 8.51306C15.6666 7.53007 15.7553 6.22775 16.982 5.00106C18.2087 3.77437 19.511 3.68562 20.494 3.77498L20.5087 3.77632L20.5234 3.77632L20.5574 3.77632C20.9991 3.77637 21.3644 3.77642 21.6865 3.69591C21.9483 3.63046 22.1724 3.51553 22.3977 3.33391L23.8277 4.76393Z" fill="white" stroke="#041331" stroke-width="0.65"/>
<path d="M26.1402 15.8889C24.9847 16.9038 23.7852 16.9761 22.8653 16.8925L22.8507 16.8912L22.8359 16.8912L22.8019 16.8912C22.3602 16.8911 21.9949 16.8911 21.6729 16.9716C21.3185 17.0602 21.0331 17.2395 20.7205 17.5521C20.4079 17.8647 20.2286 18.1501 20.14 18.5044C20.0595 18.8265 20.0596 19.1918 20.0596 19.6335L20.0596 19.6675L20.0596 19.6822L20.061 19.6969C20.1503 20.6799 20.0616 21.9822 18.8349 23.2089C17.6082 24.4356 16.3059 24.5244 15.3229 24.435L15.3082 24.4337L15.2935 24.4337L15.2595 24.4337C14.8178 24.4336 14.4524 24.4336 14.1304 24.5141C13.776 24.6027 13.4906 24.7819 13.178 25.0945C12.8654 25.4071 12.6862 25.6925 12.5976 26.0469C12.517 26.369 12.5171 26.7343 12.5171 27.176C12.5171 27.1873 12.5171 27.1986 12.5171 27.21V27.2247L12.5185 27.2394C12.6021 28.1593 12.5298 29.3588 11.5149 30.5143L10.0849 29.0842C10.2665 28.859 10.3814 28.6348 10.4469 28.373C10.5274 28.051 10.5273 27.6857 10.5273 27.2439C10.5273 27.2327 10.5273 27.2213 10.5273 27.21L10.5273 27.1952L10.5259 27.1805C10.4366 26.1975 10.5253 24.8952 11.752 23.6685C12.9787 22.4418 14.281 22.3531 15.264 22.4425L15.2787 22.4438L15.2934 22.4438L15.3274 22.4438C15.7691 22.4438 16.1345 22.4439 16.4565 22.3634C16.8109 22.2748 17.0963 22.0955 17.4089 21.7829C17.7215 21.4703 17.9007 21.1849 17.9893 20.8305C18.0698 20.5085 18.0698 20.1432 18.0698 19.7015L18.0698 19.6675L18.0698 19.6527L18.0684 19.6381C17.9791 18.6551 18.0678 17.3528 19.2945 16.1261C20.5212 14.8994 21.8235 14.8106 22.8065 14.9L22.8212 14.9013L22.8359 14.9013L22.8699 14.9013C23.3116 14.9014 23.6769 14.9014 23.999 14.8209C24.2608 14.7555 24.4849 14.6405 24.7102 14.4589L26.1402 15.8889Z" fill="white" stroke="#041331" stroke-width="0.65"/>
</svg>
